<svg width="78" height="71" viewBox="0 0 78 71" fill="none" xmlns="http://www.w3.org/2000/svg">
<path d="M71.3311 44.1542C71.135 45.9527 70.2727 47.2512 68.6161 47.8877C66.7835 48.5924 65.1894 48.071 63.8611 46.7242C61.9204 47.1092 60.0096 47.4885 58.0533 47.8763C58.059 47.9772 58.0433 48.1093 58.076 48.2301C58.5789 50.1167 58.9966 52.0219 59.3319 53.9469C59.8249 56.7755 60.0905 59.6197 59.9442 62.4923C59.8675 63.9939 59.6388 65.4728 59.133 66.8978C58.819 67.7814 58.3942 68.6069 57.772 69.3172C56.9451 70.2619 55.9123 70.8331 54.6578 70.9638C53.8153 71.0518 52.9814 70.978 52.1588 70.7578C51.2112 70.5049 50.3147 70.1256 49.4524 69.6638C47.6779 68.7148 46.0939 67.503 44.5936 66.1747C42.2196 64.0749 40.117 61.7223 38.1465 59.2489C37.7089 58.6991 37.2799 58.1407 36.8295 57.5639C36.3521 57.8637 35.9785 58.2601 35.5622 58.601C35.1588 58.932 34.7638 59.2758 34.3589 59.6054C33.937 59.9507 33.5093 60.2888 33.0803 60.6255C32.6697 60.9466 32.2549 61.262 31.8287 61.5916C32.0531 63.5038 31.4792 65.0793 29.7772 66.0724C28.1618 67.0157 26.5593 66.814 25.015 65.7698C24.7522 65.8806 24.4822 65.9914 24.2137 66.1079C22.8982 66.6804 21.5471 67.1393 20.1235 67.351C19.1077 67.503 18.0877 67.5286 17.0761 67.2885C15.7279 66.9688 14.688 66.2215 13.9734 65.0282C13.4633 64.1758 13.2019 63.2395 13.0556 62.2678C12.8396 60.8386 12.9206 59.4122 13.1153 57.9887C13.5827 54.589 14.6681 51.3698 15.9708 48.2145C16.299 47.4189 16.6528 46.6318 16.9966 45.8348C16.8844 45.6629 16.7011 45.6501 16.5334 45.6033C14.1282 44.9313 11.7613 44.1471 9.4669 43.1554C7.92261 42.4877 6.42377 41.7348 5.00734 40.8255C3.97165 40.1606 2.99564 39.4219 2.13327 38.5397C1.59199 37.9856 1.10895 37.3846 0.731047 36.7041C-0.318847 34.8146 -0.235026 32.972 0.964041 31.1805C1.49964 30.3793 2.183 29.7158 2.93455 29.1206C4.22454 28.0991 5.65802 27.3206 7.15543 26.6529C9.40013 25.6527 11.7358 24.9225 14.1183 24.3329C15.9481 23.8811 17.7922 23.5046 19.6561 23.2219C19.7627 23.2063 19.865 23.1651 19.9999 23.1253C19.6618 21.7061 19.3336 20.3237 19.0026 18.9343C17.0833 18.599 15.8103 17.5605 15.3614 15.6341C15.2477 15.144 15.2534 14.6453 15.3401 14.1438C15.4225 13.6664 15.5858 13.2246 15.8217 12.8069C16.0703 12.3665 16.3843 11.973 16.792 11.6775C17.1742 11.4005 17.589 11.1703 17.9939 10.9174C18.0238 10.0096 18.0323 9.10182 18.0877 8.19827C18.1743 6.78895 18.4073 5.40379 18.8904 4.06836C19.1703 3.29409 19.5297 2.56244 20.044 1.91745C21.1976 0.471205 22.7078 -0.135424 24.5433 0.0251129C25.8077 0.135926 26.9756 0.555025 28.1036 1.10909C29.4348 1.7626 30.6552 2.58943 31.8201 3.50151C33.9938 5.20206 35.9416 7.13986 37.7402 9.22541C38.7787 10.4287 39.7576 11.6832 40.7634 12.9149C40.9055 13.0882 41.0433 13.2644 41.2052 13.4676C41.4169 13.2871 41.6087 13.1309 41.7948 12.9675C44.3322 10.7541 46.9861 8.6955 49.8686 6.94523C51.6573 5.85983 53.5099 4.90514 55.5017 4.24026C56.5829 3.87941 57.6853 3.63079 58.8247 3.54697C59.6274 3.4873 60.4187 3.55691 61.1859 3.77712C62.4418 4.13655 63.4065 4.88809 64.0628 6.02463C64.6183 6.98643 64.8826 8.03631 64.9948 9.13023C65.1809 10.9331 64.9948 12.7146 64.651 14.4819C64.0046 17.7964 62.8566 20.9474 61.5041 24.0303C61.3322 24.4224 61.1632 24.8159 60.9785 25.2435C61.2356 25.3188 61.4487 25.3828 61.6647 25.4453C64.5473 26.2721 67.3773 27.2382 70.0795 28.5523C71.4092 29.1987 72.6935 29.9218 73.8954 30.7856C74.8587 31.4775 75.7537 32.2446 76.5038 33.1695C76.9641 33.7378 77.3605 34.3458 77.6276 35.0277C78.1717 36.4129 78.1234 37.7782 77.4571 39.115C77.119 39.7927 76.663 40.3851 76.1373 40.9235C75.1925 41.891 74.0929 42.6511 72.918 43.3089C72.4037 43.5958 71.8781 43.8629 71.3283 44.1542H71.3311ZM45.2656 48.8992C42.9641 51.5346 40.5631 54.0435 38.0115 56.4174C38.138 56.5979 38.2331 56.7527 38.3468 56.892C39.4251 58.2103 40.4807 59.5486 41.5945 60.8358C43.1118 62.5903 44.7584 64.2226 46.5641 65.6845C47.7305 66.6293 48.9537 67.4916 50.3119 68.1466C51.1544 68.5529 52.0267 68.8654 52.9601 68.9805C54.5086 69.1709 55.7759 68.6779 56.7292 67.4277C57.1327 66.8992 57.4111 66.3039 57.6271 65.6788C58.0547 64.4443 58.2309 63.1642 58.2962 61.8686C58.3971 59.8882 58.2607 57.9177 57.9964 55.9557C57.6654 53.5022 57.1582 51.0814 56.5331 48.6861C56.482 48.4929 56.4152 48.3025 56.3484 48.0852C52.6674 48.5583 49.0049 48.8325 45.2642 48.8992H45.2656ZM25.5378 34.1327C25.9839 35.3815 27.2767 38.2953 28.409 40.6209C29.9036 43.6939 31.2746 46.2141 31.7661 46.7838C31.8613 46.7952 31.9721 46.8108 32.0844 46.8194C33.5108 46.9287 34.9371 47.0495 36.3649 47.1404C38.9051 47.3024 41.4482 47.3663 43.9941 47.3351C44.3677 47.3308 44.6206 47.2143 44.8664 46.9259C47.4833 43.8686 49.9383 40.6891 52.1915 37.3534C52.3051 37.1857 52.4074 37.0124 52.5239 36.8292C50.7338 32.4876 48.6696 28.3037 46.3141 24.2619C42.0051 23.8058 37.7288 23.57 33.4639 23.6666C30.5799 27.0137 27.9502 30.4858 25.5378 34.1313V34.1327ZM42.2111 14.7788C42.2338 14.8541 42.2352 14.8783 42.2466 14.8953C43.9756 17.3446 45.6137 19.8549 47.1168 22.4491C47.2617 22.6977 47.4535 22.7815 47.7191 22.8156C49.0929 22.9918 50.4668 23.1665 51.8363 23.3654C54.1506 23.6993 56.4436 24.1525 58.7182 24.6937C58.9313 24.7449 59.1472 24.8401 59.3845 24.7634C59.4498 24.6355 59.5166 24.5176 59.572 24.3954C60.5168 22.3297 61.3621 20.2271 62.0397 18.0563C62.6577 16.0788 63.1308 14.0742 63.2956 12.0028C63.3681 11.0908 63.3312 10.1858 63.1834 9.2865C63.0797 8.65856 62.8893 8.05194 62.5824 7.48651C62.044 6.49203 61.2257 5.85273 60.136 5.5757C59.4939 5.41232 58.8375 5.36402 58.174 5.44073C57.269 5.54586 56.3882 5.74902 55.5244 6.04168C53.7727 6.63552 52.1446 7.48082 50.5705 8.43552C47.6282 10.2199 44.9346 12.3381 42.3588 14.6112C42.3091 14.6552 42.2708 14.7106 42.2097 14.7803L42.2111 14.7788ZM20.4659 24.7108C19.8451 24.8173 19.2882 24.9125 18.7313 25.0091C16.2252 25.4467 13.7546 26.0278 11.3351 26.8134C9.67291 27.3532 8.04905 27.994 6.51186 28.8364C5.63387 29.318 4.79566 29.8579 4.04411 30.5256C3.48009 31.0257 2.97717 31.5798 2.61205 32.2446C1.977 33.3968 1.92159 34.5831 2.46714 35.7764C2.65325 36.1856 2.91039 36.5692 3.17322 36.9357C3.61364 37.548 4.16629 38.0566 4.74877 38.5311C5.9521 39.5114 7.28187 40.2899 8.66989 40.9747C11.4062 42.3243 14.2774 43.3046 17.2125 44.113C17.383 44.1599 17.5563 44.1982 17.7581 44.2465C18.0678 43.6427 18.3619 43.0574 18.6659 42.4778C18.9714 41.8953 19.2825 41.3157 19.6007 40.7389C19.919 40.1621 20.2415 39.5895 20.5725 39.0198C20.9149 38.4317 21.2644 37.8464 21.6181 37.2653C21.9605 36.7027 22.3157 36.1487 22.6595 35.5875C23.0005 35.0306 23.3997 34.5078 23.6909 33.9296C22.4705 30.9191 21.4036 27.8832 20.4674 24.7108H20.4659ZM19.8536 10.764C21.8397 11.2115 23.1027 12.4219 23.3784 14.1452C23.5091 14.9678 23.4224 15.7733 23.063 16.5419C22.5899 17.5563 21.7985 18.2368 20.8055 18.6715C20.8382 19.4571 21.5073 22.2871 21.8028 22.881C22.4847 22.8085 23.1823 22.7247 23.8799 22.6636C25.3957 22.53 26.9102 22.3851 28.4289 22.2857C29.6976 22.2019 30.9706 22.1749 32.2421 22.1237C32.333 22.1195 32.4296 22.1365 32.5134 22.111C32.6385 22.0726 32.7706 22.0257 32.8714 21.9462C32.9936 21.8481 33.0874 21.7132 33.1925 21.5952C35.2241 19.2952 37.3452 17.0803 39.5814 14.9777C39.695 14.8712 39.8002 14.7547 39.928 14.624C39.8073 14.4578 39.7064 14.3114 39.597 14.1722C39.1182 13.5656 38.6451 12.9547 38.1564 12.358C36.3848 10.1915 34.5052 8.12723 32.4055 6.27041C31.2632 5.26173 30.0656 4.32408 28.7543 3.54129C27.9146 3.04121 27.0395 2.61501 26.0961 2.33655C25.5236 2.16749 24.9454 2.08794 24.3501 2.0922C23.1581 2.10072 22.2006 2.58659 21.4576 3.50577C20.8907 4.20758 20.5498 5.02305 20.3111 5.88114C19.8863 7.40411 19.7883 8.96543 19.7954 10.5381C19.7954 10.602 19.8295 10.666 19.8565 10.7654L19.8536 10.764ZM30.7006 48.294C28.6733 47.9914 26.6729 47.7272 24.6854 47.3862C22.7021 47.0452 20.733 46.6276 18.7142 46.2355C18.5792 46.5338 18.4372 46.8392 18.3008 47.1475C17.0492 49.9718 15.9652 52.8544 15.2918 55.8776C14.9352 57.4787 14.7192 59.094 14.813 60.7391C14.8613 61.583 15.019 62.4042 15.3685 63.1799C15.8643 64.2809 16.6869 65.0125 17.859 65.3208C18.5224 65.4942 19.2001 65.5339 19.8863 65.4544C21.1351 65.3095 22.3256 64.9543 23.4821 64.4727C23.6 64.4244 23.708 64.3548 23.8273 64.2923C23.7463 64.0564 23.6781 63.8661 23.6185 63.6743C23.313 62.7039 23.3684 61.7478 23.7591 60.813C24.917 58.037 28.5298 57.3352 30.6566 59.4705C30.81 59.6253 30.9635 59.7816 31.1254 59.945C32.7507 58.7445 34.2737 57.4915 35.737 56.1972C35.7299 56.139 35.7341 56.112 35.7228 56.0964C34.0179 53.5804 32.3316 51.0544 30.8043 48.4233C30.7717 48.3665 30.7205 48.3182 30.702 48.2954L30.7006 48.294ZM62.9859 45.1089C62.9561 44.8617 62.9433 44.6812 62.9121 44.5051C62.841 44.0959 62.8694 43.6924 62.9291 43.2847C63.1877 41.4975 64.7277 39.8453 66.8573 39.7501C68.5423 39.6748 69.8379 40.3951 70.7344 41.8271C70.8282 41.9763 70.9248 42.1226 71.0313 42.286C72.1423 41.7191 73.1553 41.0798 74.0489 40.2629C74.5376 39.8168 74.9667 39.3182 75.2934 38.7385C75.9398 37.5878 75.9796 36.4086 75.4341 35.211C75.1584 34.6058 74.7649 34.0787 74.316 33.5914C73.8059 33.0388 73.2348 32.5543 72.6296 32.1097C71.4916 31.2715 70.2656 30.5839 68.9955 29.9744C66.3089 28.683 63.496 27.7368 60.6304 26.937C60.504 26.9015 60.3718 26.8858 60.2482 26.8617C59.2935 28.5992 58.3857 30.3239 57.4083 32.0088C56.4195 33.7136 55.3625 35.3801 54.3311 37.0721C54.618 37.8137 54.9093 38.551 55.1877 39.294C55.4747 40.0584 55.7532 40.8255 56.0245 41.5955C56.2888 42.3442 56.5374 43.0986 56.7945 43.8501C57.0559 44.6159 57.235 45.41 57.5532 46.1829C59.3816 45.9101 61.1547 45.5535 62.9873 45.1089H62.9859ZM29.7147 46.5466C29.0469 45.2808 28.4204 44.1258 27.8251 42.9551C27.2384 41.8015 26.6715 40.6394 26.1189 39.4702C25.5577 38.2839 25.0264 37.0849 24.4723 35.8716C23.4721 37.1019 19.8834 43.5092 19.524 44.7125C22.8527 45.5294 26.2183 46.109 29.7161 46.548L29.7147 46.5466ZM53.5681 35.2579C54.5555 33.7548 55.415 32.3157 56.2461 30.8609C57.7649 28.1985 58.3772 26.9967 58.5221 26.4213C56.7164 25.8289 49.495 24.5233 48.3499 24.5943C50.2537 28.0409 51.9741 31.5528 53.5681 35.2593V35.2579ZM24.8573 32.2574C25.0221 32.023 25.1798 31.8042 25.3347 31.584C27.119 29.0367 29.0043 26.5662 30.9876 24.1695C31.0899 24.0445 31.2675 23.9422 31.2163 23.7305C28.213 23.7845 23.1695 24.2363 22.2034 24.5346C22.5856 26.2409 24.3956 31.5244 24.8587 32.2574H24.8573ZM55.8654 46.4102C55.8526 46.298 55.854 46.2284 55.8356 46.1658C55.1153 43.7322 54.2884 41.3341 53.3778 38.9644C53.3422 38.8735 53.2726 38.7968 53.2016 38.6846C52.5353 39.6137 51.9073 40.5002 51.2666 41.3782C49.8772 43.2847 48.4224 45.1415 46.915 46.9557C46.8866 46.9898 46.861 47.0282 46.8355 47.0666C46.8227 47.085 46.8085 47.1063 46.807 47.1262C46.807 47.1475 46.8198 47.1688 46.8284 47.1902C47.7959 47.2797 51.5678 46.9898 55.2105 46.5395C55.4307 46.5125 55.6466 46.4542 55.8654 46.4102ZM35.0323 21.9845C35.0408 22.003 35.0494 22.0385 35.0593 22.0385C38.432 22.1649 41.8105 22.1905 45.2216 22.5613C45.1761 22.4263 45.1633 22.3368 45.1193 22.2658C43.8122 20.1177 42.4285 18.0208 40.9453 15.9907C40.1184 16.5121 35.6802 21.0185 35.0323 21.9845ZM43.0919 48.9163C42.3503 48.9078 41.7877 48.9021 41.2237 48.8935C40.6554 48.885 40.0872 48.8836 39.5203 48.8651C38.9534 48.8481 38.3852 48.8126 37.8183 48.787C37.2514 48.7614 36.6832 48.7444 36.1163 48.7131C35.5495 48.6804 34.984 48.6208 34.4172 48.5966C33.8645 48.5725 33.3175 48.4261 32.7393 48.4915C33.2579 49.6238 36.3308 54.2864 37.0426 55.0195C39.1055 53.1101 41.0831 51.1169 43.0905 48.9149L43.0919 48.9163Z" fill="#FEFEFE"/>
<path d="M38.9751 27.7515C42.5994 27.7131 45.7213 30.6216 45.7498 34.4388C45.7783 38.3543 42.6236 41.2443 39.0263 41.25C35.3053 41.2557 32.2758 38.2631 32.2502 34.557C32.2245 30.7113 35.3551 27.7302 38.9751 27.7501V27.7515Z" fill="#FEFEFE"/>
</svg>
