<svg width="22" height="22" viewBox="0 0 22 22" fill="none" xmlns="http://www.w3.org/2000/svg">
<path d="M10.9986 0C4.92525 0 6.34765e-06 5.04962 6.34765e-06 11.2788C-0.002475 13.6429 0.722588 15.948 2.07272 17.8683C3.42286 19.7887 5.32979 21.2271 7.524 21.9804C8.074 22.0844 8.27475 21.7361 8.27475 21.437C8.27475 21.1688 8.26513 20.4597 8.25963 19.5188C5.20025 20.1999 4.554 18.0065 4.554 18.0065C4.05488 16.7033 3.333 16.3565 3.333 16.3565C2.33338 15.6572 3.40725 15.6712 3.40725 15.6712C4.51138 15.7513 5.09163 16.8339 5.09163 16.8339C6.07338 18.5569 7.667 18.0598 8.294 17.7706C8.393 17.0418 8.67763 16.5447 8.9925 16.2624C6.5505 15.9773 3.982 15.0098 3.982 10.689C3.982 9.4575 4.411 8.45067 5.115 7.66149C5.00088 7.37643 4.62413 6.22917 5.22225 4.6775C5.22225 4.6775 6.14625 4.37418 8.24725 5.83318C9.14478 5.58268 10.0709 5.45518 11.0014 5.45404C11.9319 5.45592 12.858 5.58389 13.7555 5.83458C15.8551 4.37559 16.7777 4.6789 16.7777 4.6789C17.3772 6.23198 17.0005 7.37783 16.8877 7.66289C17.5931 8.45207 18.018 9.4589 18.018 10.6904C18.018 15.0225 15.4467 15.9759 12.9965 16.2554C13.3911 16.6036 13.7431 17.2917 13.7431 18.3435C13.7431 19.8516 13.7294 21.0677 13.7294 21.437C13.7294 21.7389 13.9274 22.09 14.4856 21.979C16.6777 21.224 18.5823 19.7849 19.9305 17.8651C21.2788 15.9452 22.0027 13.6414 22 11.2788C22 5.04962 17.0747 0 10.9986 0Z" fill="white" fill-opacity="0.75"/>
</svg>
